<svg width="30" height="22" viewBox="0 0 30 22" fill="none" xmlns="http://www.w3.org/2000/svg">
<path d="M4.875 0.5C3.58207 0.5 2.34209 1.01361 1.42785 1.92785C0.513614 2.84209 0 4.08207 0 5.375V7.25H30V5.375C30 4.73481 29.8739 4.10088 29.6289 3.50942C29.3839 2.91796 29.0248 2.38054 28.5721 1.92785C28.1195 1.47517 27.582 1.11608 26.9906 0.871088C26.3991 0.626096 25.7652 0.5 25.125 0.5H4.875ZM30 9.5H0V16.625C0 17.9179 0.513614 19.1579 1.42785 20.0721C2.34209 20.9864 3.58207 21.5 4.875 21.5H25.125C25.7652 21.5 26.3991 21.3739 26.9906 21.1289C27.582 20.8839 28.1195 20.5248 28.5721 20.0721C29.0248 19.6195 29.3839 19.082 29.6289 18.4906C29.8739 17.8991 30 17.2652 30 16.625V9.5ZM20.625 14.75H24.375C24.6734 14.75 24.9595 14.8685 25.1705 15.0795C25.3815 15.2905 25.5 15.5766 25.5 15.875C25.5 16.1734 25.3815 16.4595 25.1705 16.6705C24.9595 16.8815 24.6734 17 24.375 17H20.625C20.3266 17 20.0405 16.8815 19.8295 16.6705C19.6185 16.4595 19.5 16.1734 19.5 15.875C19.5 15.5766 19.6185 15.2905 19.8295 15.0795C20.0405 14.8685 20.3266 14.75 20.625 14.75Z" fill="#8B9DA4"/>
</svg>
