<svg width="30" height="30" viewBox="0 0 30 30" fill="none" xmlns="http://www.w3.org/2000/svg">
<path fill-rule="evenodd" clip-rule="evenodd" d="M16.112 28.9179L16.0913 28.9206L15.9582 28.9667L15.9207 28.972L15.8945 28.9667L15.7613 28.9206C15.7413 28.9162 15.7263 28.9184 15.7163 28.9271L15.7088 28.9403L15.677 29.5044L15.6863 29.5307L15.7051 29.5478L15.9001 29.6454L15.9282 29.6506L15.9507 29.6454L16.1457 29.5478L16.1682 29.5268L16.1757 29.5044L16.1438 28.9416C16.1388 28.9276 16.1282 28.9197 16.112 28.9179ZM16.6088 28.769L16.5845 28.7716L16.2376 28.8942L16.2188 28.9074L16.2132 28.9219L16.247 29.4885L16.2563 29.5044L16.2713 29.5136L16.6482 29.6361C16.672 29.6405 16.6901 29.637 16.7026 29.6256L16.7101 29.6072L16.6463 28.798C16.6401 28.7822 16.6276 28.7725 16.6088 28.769ZM15.2682 28.7716C15.2599 28.7681 15.2501 28.767 15.2406 28.7685C15.2312 28.7699 15.2229 28.7739 15.2176 28.7795L15.2063 28.798L15.1426 29.6072C15.1438 29.623 15.1545 29.6335 15.1745 29.6388L15.2026 29.6361L15.5795 29.5136L15.5982 29.503L15.6057 29.4885L15.6376 28.9219L15.632 28.9061L15.6132 28.8929L15.2682 28.7716Z" fill="#8B9DA4"/>
<path fill-rule="evenodd" clip-rule="evenodd" d="M24.375 0.349426C25.8668 0.349426 27.2976 0.807726 28.3525 1.6235C29.4074 2.43928 30 3.54572 30 4.6994V27.8993C29.9998 28.1724 29.8998 28.4399 29.7117 28.671C29.5235 28.9021 29.2547 29.0874 28.9364 29.2056C28.618 29.3237 28.2629 29.37 27.9121 29.339C27.5612 29.308 27.2288 29.201 26.9531 29.0303L23.4375 26.8553L19.9219 29.0303C19.5617 29.2534 19.1078 29.366 18.647 29.3464C18.1862 29.3269 17.7509 29.1767 17.4244 28.9244L15 27.0496L12.5756 28.9244C12.2494 29.1769 11.8142 29.3274 11.3534 29.3472C10.8926 29.367 10.4385 29.2547 10.0781 29.0317L6.5625 26.8553L3.04688 29.0303C2.7712 29.201 2.43879 29.308 2.08793 29.339C1.73706 29.37 1.382 29.3237 1.06363 29.2056C0.745256 29.0874 0.476514 28.9021 0.288342 28.671C0.10017 28.4399 0.000220575 28.1724 0 27.8993V4.6994C0 3.54572 0.592632 2.43928 1.64752 1.6235C2.70242 0.807726 4.13316 0.349426 5.625 0.349426H24.375ZM15 14.8493H9.375C8.87772 14.8493 8.40081 15.0021 8.04918 15.274C7.69754 15.546 7.5 15.9148 7.5 16.2993C7.5 16.6839 7.69754 17.0527 8.04918 17.3246C8.40081 17.5966 8.87772 17.7493 9.375 17.7493H15C15.4973 17.7493 15.9742 17.5966 16.3258 17.3246C16.6775 17.0527 16.875 16.6839 16.875 16.2993C16.875 15.9148 16.6775 15.546 16.3258 15.274C15.9742 15.0021 15.4973 14.8493 15 14.8493ZM20.625 9.04938H9.375C8.8971 9.04979 8.43744 9.1913 8.08993 9.445C7.74243 9.69871 7.53331 10.0455 7.5053 10.4144C7.47729 10.7833 7.63251 11.1466 7.93925 11.43C8.24598 11.7134 8.68107 11.8956 9.15563 11.9392L9.375 11.9494H20.625C21.1029 11.9489 21.5626 11.8074 21.9101 11.5537C22.2576 11.3 22.4667 10.9533 22.4947 10.5843C22.5227 10.2154 22.3675 9.85212 22.0608 9.56872C21.754 9.28531 21.3189 9.10318 20.8444 9.05953L20.625 9.04938Z" fill="#8B9DA4"/>
</svg>
