<svg width="30" height="26" viewBox="0 0 30 26" fill="none" xmlns="http://www.w3.org/2000/svg">
<path fill-rule="evenodd" clip-rule="evenodd" d="M27.6144 7.58409C27.5325 7.57927 27.4452 7.57734 27.3527 7.5783H23.7022C20.7123 7.5783 18.1548 9.93204 18.1548 13C18.1548 16.0679 20.7138 18.4217 23.7022 18.4217H27.3527C27.4452 18.4226 27.533 18.4207 27.6158 18.4159C28.2303 18.3788 28.8104 18.1197 29.2479 17.6866C29.6855 17.2536 29.9507 16.6762 29.9941 16.0622C29.9999 15.9754 29.9999 15.8814 29.9999 15.7947V10.2053C29.9999 10.1185 29.9999 10.0246 29.9941 9.93782C29.9507 9.32375 29.6855 8.7464 29.2479 8.31337C28.8104 7.88033 28.2289 7.62114 27.6144 7.58409ZM23.3827 14.4458C24.1518 14.4458 24.7749 13.7981 24.7749 13C24.7749 12.2019 24.1518 11.5542 23.3827 11.5542C22.6121 11.5542 21.9889 12.2019 21.9889 13C21.9889 13.7981 22.6121 14.4458 23.3827 14.4458Z" fill="#8B9DA4"/>
<path fill-rule="evenodd" clip-rule="evenodd" d="M27.3509 20.5904C27.4009 20.5884 27.4506 20.5982 27.4961 20.619C27.5416 20.6398 27.5815 20.6711 27.6127 20.7102C27.6438 20.7494 27.6652 20.7953 27.6753 20.8444C27.6853 20.8934 27.6837 20.944 27.6704 20.9923C27.3813 22.0217 26.9201 22.9007 26.1813 23.6381C25.0984 24.7224 23.7264 25.201 22.032 25.4294C20.3838 25.6506 18.2802 25.6506 15.6229 25.6506H12.5694C9.91214 25.6506 7.80711 25.6506 6.16039 25.4294C4.46596 25.201 3.09393 24.721 2.01105 23.6395C0.929625 22.5566 0.449632 21.1846 0.221202 19.4901C1.72348e-07 17.8419 0 15.7383 0 13.081V12.919C0 10.2617 1.72348e-07 8.15662 0.221202 6.50843C0.449632 4.81397 0.929625 3.44193 2.01105 2.35903C3.09393 1.27759 4.46596 0.797588 6.16039 0.569155C7.80856 0.349396 9.91214 0.349396 12.5694 0.349396H15.6229C18.2802 0.349396 20.3852 0.349396 22.032 0.570601C23.7264 0.799034 25.0984 1.27903 26.1813 2.36048C26.9201 3.10072 27.3813 3.97831 27.6704 5.00771C27.6837 5.05595 27.6853 5.10664 27.6753 5.15564C27.6652 5.20465 27.6438 5.2506 27.6127 5.28975C27.5815 5.32891 27.5416 5.36018 27.4961 5.38101C27.4506 5.40184 27.4009 5.41164 27.3509 5.40964H23.7018C19.6002 5.40964 15.9858 8.64819 15.9858 13C15.9858 17.3518 19.6002 20.5904 23.7018 20.5904H27.3509ZM5.42161 6.13253C5.13403 6.13253 4.85822 6.24677 4.65487 6.45012C4.45152 6.65348 4.33728 6.92928 4.33728 7.21687C4.33728 7.50445 4.45152 7.78025 4.65487 7.98361C4.85822 8.18696 5.13403 8.3012 5.42161 8.3012H11.2046C11.4922 8.3012 11.768 8.18696 11.9714 7.98361C12.1747 7.78025 12.289 7.50445 12.289 7.21687C12.289 6.92928 12.1747 6.65348 11.9714 6.45012C11.768 6.24677 11.4922 6.13253 11.2046 6.13253H5.42161Z" fill="#8B9DA4"/>
</svg>
