<svg width="30" height="22" viewBox="0 0 30 22" fill="none" xmlns="http://www.w3.org/2000/svg">
<path d="M15 10.0471C23.2852 10.0471 30 7.90861 30 5.27354C30 2.63847 23.2852 0.5 15 0.5C6.71484 0.5 0 2.63847 0 5.27354C0 7.90861 6.71484 10.0471 15 10.0471ZM15 17.6794C9.27539 17.6794 4.21289 16.628 1.01953 15.004C0.369141 15.5409 0 16.118 0 16.7265C0 19.3615 6.71484 21.5 15 21.5C23.2852 21.5 30 19.3615 30 16.7265C30 16.118 29.6309 15.5409 28.9805 15.0085C25.7871 16.628 20.7246 17.6794 15 17.6794ZM15 11.9529C9.27539 11.9529 4.21289 10.9016 1.01953 9.27759C0.369141 9.81444 0 10.3916 0 11C0 13.6351 6.71484 15.7735 15 15.7735C23.2852 15.7735 30 13.6351 30 11C30 10.3916 29.6309 9.81444 28.9805 9.28206C25.7871 10.9016 20.7246 11.9529 15 11.9529Z" fill="#8B9DA4"/>
</svg>
