<svg width="30" height="24" viewBox="0 0 30 24" fill="none" xmlns="http://www.w3.org/2000/svg">
<path d="M2.5 0.5H27.5C28.8125 0.5 30 1.71389 30 3.05556V20.9444C30 22.2861 28.8125 23.5 27.5 23.5H2.5C1.1875 23.5 0 22.2861 0 20.9444V3.05556C0 1.71389 1.1875 0.5 2.5 0.5ZM17.5 4.33333V5.61111H27.5V4.33333H17.5ZM17.5 6.88889V8.16667H27.5V6.88889H17.5ZM17.5 9.44444V10.7222H26.25V9.44444H17.5ZM10 14.4406C7.5 14.4406 2.5 15.8333 2.5 18.3889V19.6667H17.5V18.3889C17.5 15.8333 12.5 14.4406 10 14.4406ZM10 4.33333C9.00544 4.33333 8.05161 4.7372 7.34835 5.45609C6.64509 6.17498 6.25 7.15 6.25 8.16667C6.25 9.18333 6.64509 10.1584 7.34835 10.8772C8.05161 11.5961 9.00544 12 10 12C10.9946 12 11.9484 11.5961 12.6517 10.8772C13.3549 10.1584 13.75 9.18333 13.75 8.16667C13.75 7.15 13.3549 6.17498 12.6517 5.45609C11.9484 4.7372 10.9946 4.33333 10 4.33333Z" fill="#8B9DA4"/>
</svg>
