<svg width="30" height="20" viewBox="0 0 30 20" fill="none" xmlns="http://www.w3.org/2000/svg">
<path d="M2.72727 19.5C1.97727 19.5 1.33545 19.2344 0.801818 18.7034C0.268182 18.1723 0.00090909 17.533 0 16.7857V3.21429C0 2.46786 0.267273 1.8291 0.801818 1.298C1.33636 0.766909 1.97818 0.500909 2.72727 0.500005H16.3636C17.1136 0.500005 17.7559 0.766004 18.2904 1.298C18.825 1.83 19.0918 2.46877 19.0909 3.21429V16.7857C19.0909 17.5321 18.8241 18.1714 18.2904 18.7034C17.7568 19.2354 17.1145 19.5009 16.3636 19.5H2.72727ZM23.1818 19.5C22.7954 19.5 22.4718 19.3697 22.2109 19.1091C21.95 18.8486 21.8191 18.5265 21.8182 18.1429V1.85715C21.8182 1.47262 21.9491 1.15053 22.2109 0.890862C22.4727 0.631195 22.7964 0.500909 23.1818 0.500005C23.5673 0.4991 23.8913 0.629386 24.1541 0.890862C24.4168 1.15234 24.5473 1.47443 24.5454 1.85715V18.1429C24.5454 18.5274 24.4145 18.8499 24.1527 19.1105C23.8909 19.3711 23.5673 19.5009 23.1818 19.5ZM28.6363 19.5C28.25 19.5 27.9263 19.3697 27.6654 19.1091C27.4045 18.8486 27.2736 18.5265 27.2727 18.1429V1.85715C27.2727 1.47262 27.4036 1.15053 27.6654 0.890862C27.9273 0.631195 28.2509 0.500909 28.6363 0.500005C29.0218 0.4991 29.3459 0.629386 29.6086 0.890862C29.8713 1.15234 30.0018 1.47443 30 1.85715V18.1429C30 18.5274 29.8691 18.8499 29.6073 19.1105C29.3454 19.3711 29.0218 19.5009 28.6363 19.5Z" fill="#8B9DA4"/>
</svg>
