<svg width="32" height="30" viewBox="0 0 32 30" fill="none" xmlns="http://www.w3.org/2000/svg">
<path d="M1 15C1 8.59556 1 5.39191 3.19632 3.4025C5.39263 1.41309 8.9279 1.41309 16 1.41309C23.0705 1.41309 26.6074 1.41309 28.8037 3.4025C31 5.39191 31 8.59413 31 15C31 21.4044 31 24.6081 28.8037 26.5975C26.6074 28.5869 23.0721 28.5869 16 28.5869C8.92947 28.5869 5.39263 28.5869 3.19632 26.5975C1 24.6081 1 21.4059 1 15Z" fill="#8B9DA4" stroke="#EEF8FE" stroke-width="1.5" stroke-linecap="round" stroke-linejoin="round"/>
<path d="M10.4739 12.1397C9.84575 12.1397 9.24333 11.9136 8.79916 11.5113C8.355 11.109 8.10547 10.5633 8.10547 9.99436C8.10547 9.42539 8.355 8.87973 8.79916 8.4774C9.24333 8.07508 9.84575 7.84906 10.4739 7.84906C11.102 7.84906 11.7045 8.07508 12.1486 8.4774C12.5928 8.87973 12.8423 9.42539 12.8423 9.99436C12.8423 10.5633 12.5928 11.109 12.1486 11.5113C11.7045 11.9136 11.102 12.1397 10.4739 12.1397ZM21.5265 22.1511C22.1547 22.1511 22.7571 21.9251 23.2012 21.5227C23.6454 21.1204 23.8949 20.5747 23.8949 20.0058C23.8949 19.4368 23.6454 18.8911 23.2012 18.4888C22.7571 18.0865 22.1547 17.8605 21.5265 17.8605C20.8984 17.8605 20.296 18.0865 19.8518 18.4888C19.4076 18.8911 19.1581 19.4368 19.1581 20.0058C19.1581 20.5747 19.4076 21.1204 19.8518 21.5227C20.296 21.9251 20.8984 22.1511 21.5265 22.1511ZM12.8423 9.99436H23.8949H12.8423ZM19.1581 20.0058H8.10547H19.1581Z" fill="#8B9DA4"/>
<path d="M12.8423 9.99436C12.8423 9.42539 12.5928 8.87973 12.1486 8.4774C11.7045 8.07508 11.102 7.84906 10.4739 7.84906C9.84575 7.84906 9.24333 8.07508 8.79916 8.4774C8.355 8.87973 8.10547 9.42539 8.10547 9.99436C8.10547 10.5633 8.355 11.109 8.79916 11.5113C9.24333 11.9136 9.84575 12.1397 10.4739 12.1397C11.102 12.1397 11.7045 11.9136 12.1486 11.5113C12.5928 11.109 12.8423 10.5633 12.8423 9.99436ZM12.8423 9.99436H23.8949M19.1581 20.0058C19.1581 19.4368 19.4076 18.8911 19.8518 18.4888C20.296 18.0865 20.8984 17.8605 21.5265 17.8605C22.1547 17.8605 22.7571 18.0865 23.2012 18.4888C23.6454 18.8911 23.8949 19.4368 23.8949 20.0058C23.8949 20.5747 23.6454 21.1204 23.2012 21.5227C22.7571 21.9251 22.1547 22.1511 21.5265 22.1511C20.8984 22.1511 20.296 21.9251 19.8518 21.5227C19.4076 21.1204 19.1581 20.5747 19.1581 20.0058ZM19.1581 20.0058H8.10547" stroke="#EEF8FE" stroke-width="1.5" stroke-linecap="round" stroke-linejoin="round"/>
</svg>
